<mxfile host="app.diagrams.net" modified="2023-01-13T18:07:53.992Z" agent="5.0 (Macintosh; Intel Mac OS X 10_15_7) AppleWebKit/605.1.15 (KHTML, like Gecko) Version/16.1 Safari/605.1.15" etag="9r2fKddKy9w17ywEi6UL" version="20.5.3" type="github">
  <diagram id="e1AE9HlO6_rcqyXDqXG_" name="Page-1">
    <mxGraphModel dx="1299" dy="782" grid="1" gridSize="10" guides="1" tooltips="1" connect="1" arrows="1" fold="1" page="1" pageScale="1" pageWidth="850" pageHeight="1100" math="0" shadow="0">
      <root>
        <mxCell id="0" />
        <mxCell id="1" parent="0" />
        <mxCell id="_9c_kytyYwvOYjiNlKCk-4" value="" style="sketch=0;aspect=fixed;pointerEvents=1;shadow=0;dashed=0;html=1;strokeColor=none;labelPosition=center;verticalLabelPosition=bottom;verticalAlign=top;align=center;fillColor=#666666;shape=mxgraph.azure.laptop;fontColor=#333333;" parent="1" vertex="1">
          <mxGeometry x="258.34000000000003" y="84" width="83.33" height="50" as="geometry" />
        </mxCell>
        <mxCell id="_9c_kytyYwvOYjiNlKCk-19" value="Remote Desktop Connection" style="edgeStyle=orthogonalEdgeStyle;rounded=0;orthogonalLoop=1;jettySize=auto;html=1;entryX=0.5;entryY=0;entryDx=0;entryDy=0;entryPerimeter=0;" parent="1" source="_9c_kytyYwvOYjiNlKCk-6" target="_9c_kytyYwvOYjiNlKCk-8" edge="1">
          <mxGeometry relative="1" as="geometry">
            <Array as="points">
              <mxPoint x="120" y="10" />
              <mxPoint x="533" y="10" />
            </Array>
          </mxGeometry>
        </mxCell>
        <mxCell id="_9c_kytyYwvOYjiNlKCk-6" value="" style="shape=image;html=1;verticalAlign=top;verticalLabelPosition=bottom;labelBackgroundColor=#ffffff;imageAspect=0;aspect=fixed;image=https://cdn1.iconfinder.com/data/icons/assorted-gadgets-and-items-1/144/imac-128.png" parent="1" vertex="1">
          <mxGeometry x="56" y="30" width="128" height="128" as="geometry" />
        </mxCell>
        <mxCell id="_9c_kytyYwvOYjiNlKCk-8" value="" style="sketch=0;aspect=fixed;pointerEvents=1;shadow=0;dashed=0;html=1;strokeColor=none;labelPosition=center;verticalLabelPosition=bottom;verticalAlign=top;align=center;fillColor=#666666;shape=mxgraph.mscae.enterprise.windows_server;perimeterSpacing=10;" parent="1" vertex="1">
          <mxGeometry x="510" y="64" width="46.8" height="60" as="geometry" />
        </mxCell>
        <mxCell id="_9c_kytyYwvOYjiNlKCk-9" value="Time Machine &lt;br&gt;Backup" style="sketch=0;pointerEvents=1;shadow=0;dashed=0;html=1;strokeColor=none;fillColor=#505050;labelPosition=center;verticalLabelPosition=bottom;verticalAlign=top;outlineConnect=0;align=center;shape=mxgraph.office.devices.hard_disk;" parent="1" vertex="1">
          <mxGeometry x="30" y="124" width="40" height="54" as="geometry" />
        </mxCell>
        <mxCell id="_9c_kytyYwvOYjiNlKCk-10" value="Network Attached&lt;br&gt;Storage" style="fontColor=#333333;verticalAlign=top;verticalLabelPosition=bottom;labelPosition=center;align=center;html=1;outlineConnect=0;fillColor=#f5f5f5;strokeColor=#666666;gradientDirection=north;strokeWidth=2;shape=mxgraph.networks.server_storage;" parent="1" vertex="1">
          <mxGeometry x="174" y="898" width="70" height="75" as="geometry" />
        </mxCell>
        <mxCell id="_9c_kytyYwvOYjiNlKCk-12" value="Time Machine &lt;br&gt;Backup" style="sketch=0;pointerEvents=1;shadow=0;dashed=0;html=1;strokeColor=none;fillColor=#505050;labelPosition=center;verticalLabelPosition=bottom;verticalAlign=top;outlineConnect=0;align=center;shape=mxgraph.office.devices.hard_disk;" parent="1" vertex="1">
          <mxGeometry x="210" y="124" width="40" height="54" as="geometry" />
        </mxCell>
        <mxCell id="_9c_kytyYwvOYjiNlKCk-15" value="" style="sketch=0;aspect=fixed;pointerEvents=1;shadow=0;dashed=0;html=1;strokeColor=none;labelPosition=center;verticalLabelPosition=bottom;verticalAlign=top;align=center;fillColor=#666666;shape=mxgraph.mscae.enterprise.windows_server;perimeterSpacing=10;" parent="1" vertex="1">
          <mxGeometry x="540" y="144" width="46.8" height="60" as="geometry" />
        </mxCell>
        <mxCell id="_9c_kytyYwvOYjiNlKCk-16" value="" style="sketch=0;aspect=fixed;pointerEvents=1;shadow=0;dashed=0;html=1;strokeColor=none;labelPosition=center;verticalLabelPosition=bottom;verticalAlign=top;align=center;fillColor=#666666;shape=mxgraph.mscae.enterprise.windows_server;perimeterSpacing=10;" parent="1" vertex="1">
          <mxGeometry x="590" y="74" width="46.8" height="60" as="geometry" />
        </mxCell>
        <mxCell id="_9c_kytyYwvOYjiNlKCk-23" value="Current State" style="text;html=1;align=center;verticalAlign=middle;resizable=0;points=[];autosize=1;strokeColor=none;fillColor=none;" parent="1" vertex="1">
          <mxGeometry x="320" y="240" width="90" height="30" as="geometry" />
        </mxCell>
        <mxCell id="_9c_kytyYwvOYjiNlKCk-44" style="edgeStyle=orthogonalEdgeStyle;rounded=0;orthogonalLoop=1;jettySize=auto;html=1;" parent="1" source="_9c_kytyYwvOYjiNlKCk-24" target="_9c_kytyYwvOYjiNlKCk-42" edge="1">
          <mxGeometry relative="1" as="geometry">
            <Array as="points">
              <mxPoint x="300" y="350" />
              <mxPoint x="209" y="350" />
            </Array>
          </mxGeometry>
        </mxCell>
        <mxCell id="_9c_kytyYwvOYjiNlKCk-24" value="" style="sketch=0;aspect=fixed;pointerEvents=1;shadow=0;dashed=0;html=1;strokeColor=none;labelPosition=center;verticalLabelPosition=bottom;verticalAlign=top;align=center;fillColor=#666666;shape=mxgraph.azure.laptop;fontColor=#333333;" parent="1" vertex="1">
          <mxGeometry x="258.34000000000003" y="424" width="83.33" height="50" as="geometry" />
        </mxCell>
        <mxCell id="_9c_kytyYwvOYjiNlKCk-43" style="edgeStyle=orthogonalEdgeStyle;rounded=0;orthogonalLoop=1;jettySize=auto;html=1;" parent="1" source="_9c_kytyYwvOYjiNlKCk-26" target="_9c_kytyYwvOYjiNlKCk-42" edge="1">
          <mxGeometry relative="1" as="geometry">
            <Array as="points">
              <mxPoint x="120" y="350" />
              <mxPoint x="209" y="350" />
            </Array>
          </mxGeometry>
        </mxCell>
        <mxCell id="_9c_kytyYwvOYjiNlKCk-26" value="" style="shape=image;html=1;verticalAlign=top;verticalLabelPosition=bottom;labelBackgroundColor=#ffffff;imageAspect=0;aspect=fixed;image=https://cdn1.iconfinder.com/data/icons/assorted-gadgets-and-items-1/144/imac-128.png" parent="1" vertex="1">
          <mxGeometry x="56" y="370" width="128" height="128" as="geometry" />
        </mxCell>
        <mxCell id="_9c_kytyYwvOYjiNlKCk-28" value="Time Machine &lt;br&gt;Backup" style="sketch=0;pointerEvents=1;shadow=0;dashed=0;html=1;strokeColor=none;fillColor=#505050;labelPosition=center;verticalLabelPosition=bottom;verticalAlign=top;outlineConnect=0;align=center;shape=mxgraph.office.devices.hard_disk;" parent="1" vertex="1">
          <mxGeometry x="30" y="464" width="40" height="54" as="geometry" />
        </mxCell>
        <mxCell id="_9c_kytyYwvOYjiNlKCk-29" value="Time Machine &lt;br&gt;Backup" style="sketch=0;pointerEvents=1;shadow=0;dashed=0;html=1;strokeColor=none;fillColor=#505050;labelPosition=center;verticalLabelPosition=bottom;verticalAlign=top;outlineConnect=0;align=center;shape=mxgraph.office.devices.hard_disk;" parent="1" vertex="1">
          <mxGeometry x="210" y="464" width="40" height="54" as="geometry" />
        </mxCell>
        <mxCell id="_9c_kytyYwvOYjiNlKCk-32" value="Option 1 - Hybrid" style="text;html=1;align=center;verticalAlign=middle;resizable=0;points=[];autosize=1;strokeColor=none;fillColor=none;" parent="1" vertex="1">
          <mxGeometry x="120" y="580" width="110" height="30" as="geometry" />
        </mxCell>
        <mxCell id="_9c_kytyYwvOYjiNlKCk-33" value="Parallels&lt;br&gt;Virtual&lt;br&gt;Windows&lt;br&gt;Desktop" style="shape=image;html=1;verticalAlign=top;verticalLabelPosition=bottom;labelBackgroundColor=#ffffff;imageAspect=0;aspect=fixed;image=https://cdn2.iconfinder.com/data/icons/pack3-baco-flurry-icons-style/128/Parallels2.png;fillColor=#666666;" parent="1" vertex="1">
          <mxGeometry x="120" y="450" width="48" height="48" as="geometry" />
        </mxCell>
        <mxCell id="_9c_kytyYwvOYjiNlKCk-42" value="iCloud Drive" style="verticalLabelPosition=bottom;html=1;verticalAlign=top;align=center;strokeColor=#6c8ebf;fillColor=#dae8fc;shape=mxgraph.azure.cloud;" parent="1" vertex="1">
          <mxGeometry x="184" y="280" width="50" height="32.5" as="geometry" />
        </mxCell>
        <mxCell id="AGUuRtdt2la3pMwP8rKG-1" style="edgeStyle=orthogonalEdgeStyle;rounded=0;orthogonalLoop=1;jettySize=auto;html=1;" edge="1" parent="1" source="AGUuRtdt2la3pMwP8rKG-2" target="AGUuRtdt2la3pMwP8rKG-9">
          <mxGeometry relative="1" as="geometry">
            <Array as="points">
              <mxPoint x="300" y="750" />
              <mxPoint x="209" y="750" />
            </Array>
          </mxGeometry>
        </mxCell>
        <mxCell id="AGUuRtdt2la3pMwP8rKG-13" style="edgeStyle=orthogonalEdgeStyle;rounded=0;orthogonalLoop=1;jettySize=auto;html=1;entryX=0.88;entryY=0.5;entryDx=0;entryDy=0;entryPerimeter=0;" edge="1" parent="1" source="AGUuRtdt2la3pMwP8rKG-2" target="_9c_kytyYwvOYjiNlKCk-10">
          <mxGeometry relative="1" as="geometry">
            <Array as="points">
              <mxPoint x="300" y="936" />
              <mxPoint x="250" y="936" />
            </Array>
          </mxGeometry>
        </mxCell>
        <mxCell id="AGUuRtdt2la3pMwP8rKG-2" value="" style="sketch=0;aspect=fixed;pointerEvents=1;shadow=0;dashed=0;html=1;strokeColor=none;labelPosition=center;verticalLabelPosition=bottom;verticalAlign=top;align=center;fillColor=#666666;shape=mxgraph.azure.laptop;fontColor=#333333;" vertex="1" parent="1">
          <mxGeometry x="258.34000000000003" y="824" width="83.33" height="50" as="geometry" />
        </mxCell>
        <mxCell id="AGUuRtdt2la3pMwP8rKG-3" style="edgeStyle=orthogonalEdgeStyle;rounded=0;orthogonalLoop=1;jettySize=auto;html=1;" edge="1" parent="1" source="AGUuRtdt2la3pMwP8rKG-4" target="AGUuRtdt2la3pMwP8rKG-9">
          <mxGeometry relative="1" as="geometry">
            <Array as="points">
              <mxPoint x="120" y="750" />
              <mxPoint x="209" y="750" />
            </Array>
          </mxGeometry>
        </mxCell>
        <mxCell id="AGUuRtdt2la3pMwP8rKG-12" style="edgeStyle=orthogonalEdgeStyle;rounded=0;orthogonalLoop=1;jettySize=auto;html=1;entryX=0;entryY=0.5;entryDx=0;entryDy=0;entryPerimeter=0;" edge="1" parent="1" source="AGUuRtdt2la3pMwP8rKG-4" target="_9c_kytyYwvOYjiNlKCk-10">
          <mxGeometry relative="1" as="geometry" />
        </mxCell>
        <mxCell id="AGUuRtdt2la3pMwP8rKG-4" value="" style="shape=image;html=1;verticalAlign=top;verticalLabelPosition=bottom;labelBackgroundColor=#ffffff;imageAspect=0;aspect=fixed;image=https://cdn1.iconfinder.com/data/icons/assorted-gadgets-and-items-1/144/imac-128.png" vertex="1" parent="1">
          <mxGeometry x="56" y="770" width="128" height="128" as="geometry" />
        </mxCell>
        <mxCell id="AGUuRtdt2la3pMwP8rKG-7" value="Option 2&amp;nbsp;- Cloud" style="text;html=1;align=center;verticalAlign=middle;resizable=0;points=[];autosize=1;strokeColor=none;fillColor=none;" vertex="1" parent="1">
          <mxGeometry x="310" y="980" width="110" height="30" as="geometry" />
        </mxCell>
        <mxCell id="AGUuRtdt2la3pMwP8rKG-9" value="iCloud Drive" style="verticalLabelPosition=bottom;html=1;verticalAlign=top;align=center;strokeColor=#6c8ebf;fillColor=#dae8fc;shape=mxgraph.azure.cloud;" vertex="1" parent="1">
          <mxGeometry x="184" y="680" width="50" height="32.5" as="geometry" />
        </mxCell>
        <mxCell id="AGUuRtdt2la3pMwP8rKG-10" value="Azure Cloud" style="sketch=0;outlineConnect=0;html=1;whiteSpace=wrap;fontSize=12;fontStyle=0;shape=mxgraph.aws4.group;grIcon=mxgraph.aws4.group_aws_cloud;strokeColor=#6c8ebf;fillColor=#dae8fc;verticalAlign=top;align=left;spacingLeft=30;dashed=0;" vertex="1" parent="1">
          <mxGeometry x="400" y="784" width="130" height="130" as="geometry" />
        </mxCell>
        <mxCell id="AGUuRtdt2la3pMwP8rKG-11" value="Cloud VM" style="sketch=0;aspect=fixed;html=1;points=[];align=center;image;fontSize=12;image=img/lib/mscae/Virtual_Machine_2.svg;fillColor=#666666;" vertex="1" parent="1">
          <mxGeometry x="440" y="824" width="50" height="46" as="geometry" />
        </mxCell>
      </root>
    </mxGraphModel>
  </diagram>
</mxfile>
